<svg xmlns="http://www.w3.org/2000/svg" version="1.1" xmlns:xlink="http://www.w3.org/1999/xlink" xmlns:svgjs="http://svgjs.dev/svgjs" width="1000" height="1012" viewBox="0 0 1000 1012"><g transform="matrix(1,0,0,1,0.883934426229473,0.40971659919023296)"><svg viewBox="0 0 244 247" data-background-color="#ffffff" preserveAspectRatio="xMidYMid meet" height="1012" width="1000" xmlns="http://www.w3.org/2000/svg" xmlns:xlink="http://www.w3.org/1999/xlink"><g id="tight-bounds" transform="matrix(1,0,0,1,-0.21567999999999188,-0.09999999999999432)"><svg viewBox="0 0 244.43135999999998 247.2" height="247.2" width="244.43135999999998"><g><svg></svg></g><g><svg viewBox="0 0 244.43135999999998 247.2" height="247.2" width="244.43135999999998"><g transform="matrix(1,0,0,1,0,106.63079022654621)"><svg viewBox="0 0 244.43135999999998 33.938419546907575" height="33.938419546907575" width="244.43135999999998"><g><svg viewBox="0 0 244.43135999999998 33.938419546907575" height="33.938419546907575" width="244.43135999999998"><g><svg viewBox="0 0 244.43135999999998 33.938419546907575" height="33.938419546907575" width="244.43135999999998"><g><svg viewBox="0 0 244.43135999999998 33.938419546907575" height="33.938419546907575" width="244.43135999999998"><g><svg viewBox="0 0 244.43135999999998 33.938419546907575" height="33.938419546907575" width="244.43135999999998"><g><svg viewBox="0 0 244.43135999999998 33.938419546907575" height="33.938419546907575" width="244.43135999999998"><g transform="matrix(1,0,0,1,0,0)"><svg width="244.43135999999998" viewBox="3.75 -37 359.7300109863281 49.95000076293945" height="33.938419546907575" data-palette-color="#89939e"><path d="M37.1-28Q40.35-28 42.93-26.65 45.5-25.3 46.98-22.65 48.45-20 48.45-16.25L48.45-16.25 48.45 0 42.8 0 42.8-15.4Q42.8-19.1 40.95-21.08 39.1-23.05 35.9-23.05L35.9-23.05Q32.7-23.05 30.83-21.08 28.95-19.1 28.95-15.4L28.95-15.4 28.95 0 23.3 0 23.3-15.4Q23.3-19.1 21.45-21.08 19.6-23.05 16.4-23.05L16.4-23.05Q13.2-23.05 11.33-21.08 9.45-19.1 9.45-15.4L9.45-15.4 9.45 0 3.75 0 3.75-27.55 9.45-27.55 9.45-24.4Q10.85-26.1 13-27.05 15.15-28 17.6-28L17.6-28Q20.9-28 23.5-26.6 26.1-25.2 27.5-22.55L27.5-22.55Q28.75-25.05 31.4-26.53 34.05-28 37.1-28L37.1-28ZM74.6-27.55L80.5-27.55 63.6 12.95 57.7 12.95 63.3-0.45 52.45-27.55 58.8-27.55 66.55-6.55 74.6-27.55ZM109.1-24.4Q109.1-21.75 107.85-19.4 106.6-17.05 103.85-15.58 101.1-14.1 96.8-14.1L96.8-14.1 90.5-14.1 90.5 0 84.8 0 84.8-34.75 96.8-34.75Q100.8-34.75 103.57-33.38 106.35-32 107.72-29.65 109.1-27.3 109.1-24.4L109.1-24.4ZM96.8-18.75Q100.05-18.75 101.65-20.23 103.25-21.7 103.25-24.4L103.25-24.4Q103.25-30.1 96.8-30.1L96.8-30.1 90.5-30.1 90.5-18.75 96.8-18.75ZM128.79-28Q131.94-28 134.42-26.65 136.89-25.3 138.32-22.65 139.74-20 139.74-16.25L139.74-16.25 139.74 0 134.09 0 134.09-15.4Q134.09-19.1 132.24-21.08 130.39-23.05 127.19-23.05L127.19-23.05Q123.99-23.05 122.12-21.08 120.24-19.1 120.24-15.4L120.24-15.4 120.24 0 114.54 0 114.54-37 120.24-37 120.24-24.35Q121.69-26.1 123.92-27.05 126.14-28 128.79-28L128.79-28ZM158.94 0.45Q155.04 0.45 151.89-1.33 148.74-3.1 146.94-6.33 145.14-9.55 145.14-13.8L145.14-13.8Q145.14-18 146.99-21.25 148.84-24.5 152.04-26.25 155.24-28 159.19-28L159.19-28Q163.14-28 166.34-26.25 169.54-24.5 171.39-21.25 173.24-18 173.24-13.8L173.24-13.8Q173.24-9.6 171.34-6.35 169.44-3.1 166.17-1.33 162.89 0.45 158.94 0.45L158.94 0.45ZM158.94-4.5Q161.14-4.5 163.06-5.55 164.99-6.6 166.19-8.7 167.39-10.8 167.39-13.8L167.39-13.8Q167.39-16.8 166.24-18.88 165.09-20.95 163.19-22 161.29-23.05 159.09-23.05L159.09-23.05Q156.89-23.05 155.02-22 153.14-20.95 152.04-18.88 150.94-16.8 150.94-13.8L150.94-13.8Q150.94-9.35 153.22-6.93 155.49-4.5 158.94-4.5L158.94-4.5ZM192.79-28Q196.04-28 198.61-26.65 201.19-25.3 202.64-22.65 204.09-20 204.09-16.25L204.09-16.25 204.09 0 198.44 0 198.44-15.4Q198.44-19.1 196.59-21.08 194.74-23.05 191.54-23.05L191.54-23.05Q188.34-23.05 186.46-21.08 184.59-19.1 184.59-15.4L184.59-15.4 184.59 0 178.89 0 178.89-27.55 184.59-27.55 184.59-24.4Q185.99-26.1 188.16-27.05 190.34-28 192.79-28L192.79-28ZM236.59-14.45Q236.59-12.9 236.39-11.65L236.39-11.65 215.34-11.65Q215.59-8.35 217.79-6.35 219.99-4.35 223.19-4.35L223.19-4.35Q227.79-4.35 229.69-8.2L229.69-8.2 235.84-8.2Q234.59-4.4 231.31-1.98 228.04 0.45 223.19 0.45L223.19 0.45Q219.24 0.45 216.11-1.33 212.99-3.1 211.21-6.33 209.44-9.55 209.44-13.8L209.44-13.8Q209.44-18.05 211.16-21.28 212.89-24.5 216.01-26.25 219.14-28 223.19-28L223.19-28Q227.09-28 230.14-26.3 233.19-24.6 234.89-21.53 236.59-18.45 236.59-14.45L236.59-14.45ZM215.39-16.25L230.64-16.25Q230.59-19.4 228.39-21.3 226.19-23.2 222.94-23.2L222.94-23.2Q219.99-23.2 217.89-21.33 215.79-19.45 215.39-16.25L215.39-16.25ZM247.88-23.45Q249.33-25.45 251.86-26.73 254.38-28 257.48-28L257.48-28Q261.13-28 264.08-26.25 267.03-24.5 268.73-21.28 270.43-18.05 270.43-13.9L270.43-13.9Q270.43-9.75 268.73-6.48 267.03-3.2 264.06-1.38 261.08 0.45 257.48 0.45L257.48 0.45Q254.28 0.45 251.81-0.8 249.33-2.05 247.88-4L247.88-4 247.88 0 242.18 0 242.18-37 247.88-37 247.88-23.45ZM264.63-13.9Q264.63-16.75 263.46-18.82 262.28-20.9 260.36-21.98 258.43-23.05 256.23-23.05L256.23-23.05Q254.08-23.05 252.16-21.95 250.23-20.85 249.06-18.75 247.88-16.65 247.88-13.8L247.88-13.8Q247.88-10.95 249.06-8.83 250.23-6.7 252.16-5.6 254.08-4.5 256.23-4.5L256.23-4.5Q258.43-4.5 260.36-5.63 262.28-6.75 263.46-8.9 264.63-11.05 264.63-13.9L264.63-13.9ZM288.03 0.45Q284.13 0.45 280.98-1.33 277.83-3.1 276.03-6.33 274.23-9.55 274.23-13.8L274.23-13.8Q274.23-18 276.08-21.25 277.93-24.5 281.13-26.25 284.33-28 288.28-28L288.28-28Q292.23-28 295.43-26.25 298.63-24.5 300.48-21.25 302.33-18 302.33-13.8L302.33-13.8Q302.33-9.6 300.43-6.35 298.53-3.1 295.26-1.33 291.98 0.45 288.03 0.45L288.03 0.45ZM288.03-4.5Q290.23-4.5 292.16-5.55 294.08-6.6 295.28-8.7 296.48-10.8 296.48-13.8L296.48-13.8Q296.48-16.8 295.33-18.88 294.18-20.95 292.28-22 290.38-23.05 288.18-23.05L288.18-23.05Q285.98-23.05 284.11-22 282.23-20.95 281.13-18.88 280.03-16.8 280.03-13.8L280.03-13.8Q280.03-9.35 282.31-6.93 284.58-4.5 288.03-4.5L288.03-4.5ZM319.93 0.45Q316.03 0.45 312.88-1.33 309.73-3.1 307.93-6.33 306.13-9.55 306.13-13.8L306.13-13.8Q306.13-18 307.98-21.25 309.83-24.5 313.03-26.25 316.23-28 320.18-28L320.18-28Q324.13-28 327.33-26.25 330.53-24.5 332.38-21.25 334.23-18 334.23-13.8L334.23-13.8Q334.23-9.6 332.33-6.35 330.43-3.1 327.15-1.33 323.88 0.45 319.93 0.45L319.93 0.45ZM319.93-4.5Q322.13-4.5 324.05-5.55 325.98-6.6 327.18-8.7 328.38-10.8 328.38-13.8L328.38-13.8Q328.38-16.8 327.23-18.88 326.08-20.95 324.18-22 322.28-23.05 320.08-23.05L320.08-23.05Q317.88-23.05 316-22 314.13-20.95 313.03-18.88 311.93-16.8 311.93-13.8L311.93-13.8Q311.93-9.35 314.2-6.93 316.48-4.5 319.93-4.5L319.93-4.5ZM363.48-27.55L350.77-13.75 363.48 0 355.77 0 345.57-11.85 345.57 0 339.88 0 339.88-37 345.57-37 345.57-15.5 355.57-27.55 363.48-27.55Z" opacity="1" transform="matrix(1,0,0,1,0,0)" fill="currentColor" class="undefined-text-0" data-fill-palette-color="primary" id="text-0"></path></svg></g></svg></g></svg></g></svg></g><g></g></svg></g></svg></g></svg></g><path d="M0 100.631L0 1 244.431 1 244.431 100.631 241.371 100.631 241.371 4.061 3.061 4.061 3.061 100.631 0 100.631M0 146.569L0 246.2 244.431 246.2 244.431 146.569 241.371 146.569 241.371 243.139 3.061 243.139 3.061 146.569 0 146.569" fill="#000000" stroke="transparent" data-fill-palette-color="primary"></path></svg></g><defs></defs></svg><rect width="244.43135999999998" height="247.2" fill="none" stroke="none" visibility="hidden"></rect></g></svg></g></svg>